<?xml version="1.0" encoding="UTF-8" standalone="no"?>
<!-- Created with Inkscape (http://www.inkscape.org/) -->

<svg
   xmlns:dc="http://purl.org/dc/elements/1.1/"
   xmlns:cc="http://creativecommons.org/ns#"
   xmlns:rdf="http://www.w3.org/1999/02/22-rdf-syntax-ns#"
   xmlns:svg="http://www.w3.org/2000/svg"
   xmlns="http://www.w3.org/2000/svg"
   xmlns:sodipodi="http://sodipodi.sourceforge.net/DTD/sodipodi-0.dtd"
   xmlns:inkscape="http://www.inkscape.org/namespaces/inkscape"
   width="570.09448"
   height="320.36218"
   viewBox="0 0 570.0945 320.36219"
   id="svg2"
   version="1.1"
   inkscape:version="0.91 r13725"
   sodipodi:docname="island-splashscreen.svg"
   inkscape:export-filename="/Users/Wyatt/Desktop/splash/MarketOperator/src/main/resources/splashScreen.png"
   inkscape:export-xdpi="90"
   inkscape:export-ydpi="90">
  <defs
     id="defs4" />
  <sodipodi:namedview
     id="base"
     pagecolor="#ffffff"
     bordercolor="#666666"
     borderopacity="1.0"
     inkscape:pageopacity="0.0"
     inkscape:pageshadow="2"
     inkscape:zoom="0.49497475"
     inkscape:cx="274.29802"
     inkscape:cy="80.06821"
     inkscape:document-units="px"
     inkscape:current-layer="layer6"
     showgrid="false"
     units="px"
     inkscape:window-width="1440"
     inkscape:window-height="802"
     inkscape:window-x="0"
     inkscape:window-y="1"
     inkscape:window-maximized="1" />
  <metadata
     id="metadata7">
    <rdf:RDF>
      <cc:Work
         rdf:about="">
        <dc:format>image/svg+xml</dc:format>
        <dc:type
           rdf:resource="http://purl.org/dc/dcmitype/StillImage" />
        <dc:title></dc:title>
      </cc:Work>
    </rdf:RDF>
  </metadata>
  <g
     inkscape:groupmode="layer"
     id="layer6"
     inkscape:label="water base"
     transform="translate(0,-248)">
    <rect
       style="opacity:1;fill:#0087af;fill-opacity:1;stroke:#0087af;stroke-width:2.11591649;stroke-linecap:round;stroke-linejoin:round;stroke-miterlimit:4;stroke-dasharray:none;stroke-opacity:1"
       id="rect4428"
       width="619.29852"
       height="231.68994"
       x="-584.36133"
       y="-571.60748"
       transform="scale(-1,-1)"
       inkscape:export-filename="/Users/Wyatt/Desktop/splash/MarketOperator/src/main/resources/splashScreen.png"
       inkscape:export-xdpi="90"
       inkscape:export-ydpi="90" />
  </g>
  <g
     inkscape:groupmode="layer"
     id="layer10"
     inkscape:label="sky red"
     transform="translate(0,-248)">
    <rect
       style="opacity:1;fill:#ff2c00;fill-opacity:1;stroke:#ff2c00;stroke-width:2.01604557;stroke-linecap:round;stroke-linejoin:round;stroke-miterlimit:4;stroke-dasharray:none;stroke-opacity:1"
       id="rect4618"
       width="622.42871"
       height="184.46315"
       x="-586.8761"
       y="245.81458"
       transform="scale(-1,1)"
       inkscape:export-filename="/Users/Wyatt/Desktop/splash/MarketOperator/src/main/resources/splashScreen.png"
       inkscape:export-xdpi="90"
       inkscape:export-ydpi="90" />
  </g>
  <g
     inkscape:groupmode="layer"
     id="layer12"
     inkscape:label="island text"
     transform="translate(0,-248)" />
  <g
     inkscape:groupmode="layer"
     id="layer11"
     inkscape:label="text"
     transform="translate(0,-248)">
    <text
       xml:space="preserve"
       style="font-style:normal;font-weight:normal;font-size:40px;line-height:125%;font-family:sans-serif;letter-spacing:0px;word-spacing:0px;fill:#000000;fill-opacity:1;stroke:none;stroke-width:1px;stroke-linecap:butt;stroke-linejoin:miter;stroke-opacity:1"
       x="-305.06607"
       y="158.24025"
       id="text4672"
       sodipodi:linespacing="125%"><tspan
         sodipodi:role="line"
         id="tspan4674"
         x="-305.06607"
         y="158.24025" /></text>
  </g>
  <g
     inkscape:groupmode="layer"
     id="layer7"
     inkscape:label="wave 1"
     transform="translate(0,-248)" />
  <g
     inkscape:groupmode="layer"
     id="layer8"
     inkscape:label="wave 2"
     transform="translate(0,-248)" />
  <g
     inkscape:groupmode="layer"
     id="layer9"
     inkscape:label="wave 3"
     transform="translate(0,-248)" />
  <g
     inkscape:label="sand"
     inkscape:groupmode="layer"
     id="layer1"
     transform="translate(0,-731.99994)" />
  <g
     inkscape:groupmode="layer"
     id="layer2"
     inkscape:label="sun"
     transform="translate(0,-248)">
    <g
       id="layer2-4"
       inkscape:label="sun"
       transform="matrix(0.75214678,0,0,0.75214678,176.09993,204.56787)"
       inkscape:export-filename="/Users/Wyatt/Desktop/splash/MarketOperator/src/main/resources/splashScreen.png"
       inkscape:export-xdpi="90"
       inkscape:export-ydpi="90">
      <circle
         style="opacity:1;fill:#fffb2d;fill-opacity:1;stroke:#fffb2d;stroke-width:1.94318581;stroke-linecap:round;stroke-linejoin:round;stroke-miterlimit:4;stroke-dasharray:none;stroke-opacity:1"
         id="path4209-8"
         cx="147.66002"
         cy="197.06683"
         r="74.427155" />
    </g>
  </g>
  <g
     inkscape:groupmode="layer"
     id="layer4"
     inkscape:label="leaves shade"
     transform="translate(0,-248)" />
  <g
     inkscape:groupmode="layer"
     id="layer3"
     inkscape:label="tree trunk"
     transform="translate(0,-248)" />
  <g
     inkscape:groupmode="layer"
     id="layer5"
     inkscape:label="leaves green"
     transform="translate(0,-248)">
    <g
       id="g4206"
       transform="matrix(0.77441111,0,0,0.77441111,158.74735,206.30719)"
       inkscape:export-filename="/Users/Wyatt/Desktop/splash/MarketOperator/src/main/resources/splashScreen.png"
       inkscape:export-xdpi="90"
       inkscape:export-ydpi="90">
      <path
         inkscape:connector-curvature="0"
         id="path4201"
         d="m 142.35674,802.53756 -29.04189,4.29315 -26.26397,6.81853 -30.55711,10.10152 -15.65737,6.31346 11.86929,3.28299 12.87945,1.51523 9.34391,3.283 0.25254,7.82868 11.61675,4.04061 24.24367,3.78807 21.46574,2.27285 30.05204,2.52538 16.41497,0.25254 11.11168,-1.2627 21.71828,-3.53553 19.95052,-4.29315 -5.05077,-10.10152 31.56727,-3.03046 12.62691,-2.52538 9.09137,-4.79823 -16.16244,-8.08122 -15.9099,-4.29315 -15.65737,-3.53553 -28.28427,-9.09137 -16.41498,-2.02031 -15.15229,-0.75761 z"
         style="fill:#c5b358;fill-opacity:1;fill-rule:evenodd;stroke:#c5b358;stroke-width:1px;stroke-linecap:butt;stroke-linejoin:miter;stroke-opacity:1"
         transform="translate(0,-483.99994)" />
      <circle
         r="0"
         cy="197.06683"
         cx="147.66002"
         id="path4209"
         style="opacity:1;fill:#fffb2d;fill-opacity:1;stroke:#fffb2d;stroke-width:1.94318581;stroke-linecap:round;stroke-linejoin:round;stroke-miterlimit:4;stroke-dasharray:none;stroke-opacity:1"
         transform="translate(0,2.6171874e-6)" />
      <path
         inkscape:connector-curvature="0"
         id="path4217"
         d="m 111.29455,163.98428 1.01015,25.00128 9.09137,-18.94036 4.79823,-1.51523 11.61674,13.38452 3.53553,-3.28299 1.76778,7.3236 8.58629,4.54569 -8.58629,-27.02158 -19.95051,-7.07106 -6.56599,-5.30331 z"
         style="fill:#000000;fill-opacity:1;fill-rule:evenodd;stroke:#000000;stroke-width:1px;stroke-linecap:butt;stroke-linejoin:miter;stroke-opacity:1"
         transform="translate(0,2.6171874e-6)" />
      <path
         inkscape:connector-curvature="0"
         id="path4215"
         d="m 180.74252,195.04645 -9.84898,20.96067 9.09137,-3.53553 2.0203,-6.06092 3.78808,2.52538 12.6269,-9.09137 4.79823,1.51523 6.56599,15.40482 4.0406,-17.67767 -4.29314,-12.6269 -6.56599,3.78807 z"
         style="fill:#000000;fill-opacity:1;fill-rule:evenodd;stroke:#000000;stroke-width:1px;stroke-linecap:butt;stroke-linejoin:miter;stroke-opacity:1"
         transform="translate(0,2.6171874e-6)" />
      <path
         inkscape:connector-curvature="0"
         id="path4203"
         d="m 143.36688,323.58838 5.3033,0 12.87945,-2.77792 10.6066,1.26269 0.50507,-17.93021 3.03046,-19.95051 5.55584,-20.20305 8.83883,-29.29443 8.33376,-23.73858 7.07106,-16.16244 3.03047,-8.33376 -6.06092,4.04061 -4.29314,9.59645 -12.12184,24.4962 -10.6066,24.49619 -11.86929,25.75889 -3.53553,7.3236 -8.33376,-29.79949 -9.59645,-32.82996 -11.8693,-39.39595 -7.57615,-23.48605 -5.55584,-4.79822 4.29315,16.41497 6.06092,24.74874 5.3033,26.51651 5.55584,28.03174 2.77792,18.94036 1.76776,21.9708 1.26269,18.18276 z"
         style="fill:#cd0000;fill-opacity:1;fill-rule:evenodd;stroke:#cd0000;stroke-width:1px;stroke-linecap:butt;stroke-linejoin:miter;stroke-opacity:1"
         transform="translate(0,2.6171874e-6)" />
      <path
         inkscape:connector-curvature="0"
         id="path4211"
         d="m 88.81865,133.42716 -36.11296,63.89215 20.96067,-13.63706 4.54568,-9.34391 1.01016,5.3033 9.59645,-13.38452 -4.54569,16.66751 6.31345,22.4759 16.92005,-32.82996 -1.76776,-13.38452 3.28299,7.3236 7.82869,-15.40482 5.3033,5.55584 32.82995,10.6066 0,-9.34391 5.55584,9.59645 23.48605,2.52538 -49.24494,-41.16372 -15.65736,10.35407 -8.83884,-17.42514 -10.6066,10.85914 -2.77792,6.566 z"
         style="fill:#0cff00;fill-opacity:1;fill-rule:evenodd;stroke:#0cff00;stroke-width:1px;stroke-linecap:butt;stroke-linejoin:miter;stroke-opacity:1" />
      <path
         inkscape:connector-curvature="0"
         id="path4213"
         d="m 191.60166,167.77235 -52.02285,31.06219 24.24366,-1.76777 6.31345,-7.07107 0,7.32361 32.07235,-7.07107 6.81852,-4.04061 4.79823,13.38452 5.3033,-6.06091 -2.0203,10.6066 14.64721,26.26396 7.3236,-17.42513 -4.29315,-14.14213 9.59645,12.12183 2.52539,-7.32361 2.52538,9.84899 20.45559,11.86929 -32.57742,-51.77032 -8.5863,4.29315 -1.26269,-5.3033 -10.85914,-9.84899 -9.34391,13.8896 z"
         style="fill:#0cff00;fill-opacity:1;fill-rule:evenodd;stroke:#0cff00;stroke-width:1px;stroke-linecap:butt;stroke-linejoin:miter;stroke-opacity:1" />
    </g>
    <g
       id="layer11-1"
       inkscape:label="text"
       transform="translate(833.98177,-553.90794)">
      <text
         xml:space="preserve"
         style="font-style:normal;font-weight:normal;font-size:40px;line-height:125%;font-family:sans-serif;letter-spacing:0px;word-spacing:0px;fill:#000000;fill-opacity:1;stroke:none;stroke-width:1px;stroke-linecap:butt;stroke-linejoin:miter;stroke-opacity:1"
         x="-305.06607"
         y="158.24025"
         id="text4672-7"
         sodipodi:linespacing="125%"><tspan
           sodipodi:role="line"
           id="tspan4674-8"
           x="-305.06607"
           y="158.24025" /></text>
    </g>
  </g>
</svg>
