<?xml version="1.0" encoding="UTF-8" standalone="no"?>
<!-- Created with Inkscape (http://www.inkscape.org/) -->

<svg
   xmlns:osb="http://www.openswatchbook.org/uri/2009/osb"
   xmlns:dc="http://purl.org/dc/elements/1.1/"
   xmlns:cc="http://creativecommons.org/ns#"
   xmlns:rdf="http://www.w3.org/1999/02/22-rdf-syntax-ns#"
   xmlns:svg="http://www.w3.org/2000/svg"
   xmlns="http://www.w3.org/2000/svg"
   xmlns:sodipodi="http://sodipodi.sourceforge.net/DTD/sodipodi-0.dtd"
   xmlns:inkscape="http://www.inkscape.org/namespaces/inkscape"
   width="32"
   height="32"
   viewBox="0 0 8.4666667 8.4666667"
   version="1.1"
   id="svg8"
   inkscape:export-filename="C:\Users\wendre01\SpecVault\src\main\resources\com\speculation1000\specvault\vault\sell-icon.png"
   inkscape:export-xdpi="96"
   inkscape:export-ydpi="96"
   inkscape:version="0.92.1 r15371"
   sodipodi:docname="automated-icon.svg">
  <defs
     id="defs2">
    <linearGradient
       osb:paint="solid"
       id="linearGradient5647">
      <stop
         id="stop5649"
         offset="0"
         style="stop-color:#000000;stop-opacity:1;" />
    </linearGradient>
    <linearGradient
       osb:paint="gradient"
       id="linearGradient5018">
      <stop
         id="stop5020"
         offset="0"
         style="stop-color:#00ff00;stop-opacity:1;" />
      <stop
         id="stop5022"
         offset="1"
         style="stop-color:#00ff00;stop-opacity:0;" />
    </linearGradient>
  </defs>
  <sodipodi:namedview
     id="base"
     pagecolor="#ffffff"
     bordercolor="#666666"
     borderopacity="1.0"
     inkscape:pageopacity="0.0"
     inkscape:pageshadow="2"
     inkscape:zoom="2.8"
     inkscape:cx="-10.494808"
     inkscape:cy="-57.779376"
     inkscape:document-units="px"
     inkscape:current-layer="layer1"
     showgrid="false"
     units="px"
     inkscape:window-width="1680"
     inkscape:window-height="987"
     inkscape:window-x="1912"
     inkscape:window-y="264"
     inkscape:window-maximized="1" />
  <metadata
     id="metadata5">
    <rdf:RDF>
      <cc:Work
         rdf:about="">
        <dc:format>image/svg+xml</dc:format>
        <dc:type
           rdf:resource="http://purl.org/dc/dcmitype/StillImage" />
        <dc:title></dc:title>
      </cc:Work>
    </rdf:RDF>
  </metadata>
  <g
     inkscape:label="Layer 1"
     inkscape:groupmode="layer"
     id="layer1"
     transform="translate(0,-288.53333)">
    <g
       style="enable-background:new"
       id="g5235"
       transform="matrix(0.00787503,0,0,0.00787503,-0.06820806,288.61791)">
      <g
         style="opacity:0.99900004"
         transform="translate(0,-0.26771242)"
         id="layer1-8"
         inkscape:label="Layer 1">
        <ellipse
           ry="394.10239"
           rx="393.39273"
           cy="514.8952"
           cx="518.50317"
           id="path6820"
           style="opacity:0.978;fill:#ffffff;fill-opacity:1;fill-rule:nonzero;stroke:#000000;stroke-width:0;stroke-linecap:round;stroke-linejoin:round;stroke-miterlimit:4;stroke-dasharray:none;stroke-opacity:1" />
      </g>
      <g
         inkscape:label="Layer 2"
         id="layer2">
        <rect
           transform="matrix(-0.0011185,-0.99999937,0.99999862,-0.00166137,0,-0.26771242)"
           y="361.20694"
           x="-613.11432"
           height="212.24667"
           width="70.108337"
           id="rect6812"
           style="opacity:0.978;fill:#000000;fill-opacity:1;fill-rule:nonzero;stroke:#000000;stroke-width:2.00000024;stroke-linecap:round;stroke-linejoin:round;stroke-miterlimit:4;stroke-dasharray:none;stroke-opacity:1" />
        <rect
           style="opacity:0.978;fill:#000000;fill-opacity:1;fill-rule:nonzero;stroke:#000000;stroke-width:2;stroke-linecap:round;stroke-linejoin:round;stroke-miterlimit:4;stroke-dasharray:none;stroke-opacity:1"
           id="rect6818"
           width="67.513176"
           height="233.10469"
           x="656.28546"
           y="188.44847"
           transform="matrix(0.95881245,0.28403993,-0.28386631,0.95886387,0,-0.26771242)" />
        <path
           sodipodi:nodetypes="cccacccccccc"
           inkscape:connector-curvature="0"
           id="path6810"
           d="m 595.36812,842.31103 17.51927,135.01533 c 108.94806,-21.40209 208.44819,-81.53131 274.54641,-157.32578 28.10096,-32.70377 52.52881,-70.64679 64.70132,-112.01143 23.11505,-78.54944 26.32785,-157.96523 11.92842,-245.34991 l 76.95116,-31.46761 -182.48493,-125.00049 -74.56638,196.92362 91.356,-18.24897 c 13.49882,87.88568 -14.26061,163.75951 -61.30188,229.07495 -42.32541,64.6449 -100.10402,87.8096 -167.56533,116.26621 z"
           style="opacity:0.99900004;fill:#0000ff;fill-opacity:1;fill-rule:evenodd;stroke:#000000;stroke-width:2;stroke-linecap:butt;stroke-linejoin:miter;stroke-miterlimit:4;stroke-dasharray:none;stroke-opacity:1"
           transform="translate(0,-0.26771242)" />
        <path
           style="opacity:0.99900004;fill:#0000ff;fill-opacity:1;fill-rule:evenodd;stroke:#000000;stroke-width:2;stroke-linecap:butt;stroke-linejoin:miter;stroke-miterlimit:4;stroke-dasharray:none;stroke-opacity:1"
           d="M 215.71635,434.99285 94.425705,387.3007 c -32.393123,101.22991 -27.952394,212.43154 5.05446,302.86684 14.435415,38.66965 34.960445,76.68045 64.016415,105.99726 55.17587,55.67123 120.27338,95.0568 200.18923,123.35815 l -9.1709,79.05429 189.11223,-95.2415 L 412.97855,749.83626 386.0698,834.86023 C 306.15002,805.57235 255.36319,747.24347 222.33714,677.62699 187.69444,612.27406 194.96832,553.13006 202.2791,483.42315 Z"
           id="path6808"
           inkscape:connector-curvature="0"
           sodipodi:nodetypes="cccacccccccc"
           transform="translate(0,-0.26771242)" />
        <path
           sodipodi:nodetypes="cccacccccccc"
           inkscape:connector-curvature="0"
           id="path6806"
           d="M 753.89448,315.47285 863.28443,231.82172 C 789.42045,147.22719 686.41719,90.500461 586.59222,70.95415 c -42.86046,-8.066775 -88.45141,-10.265859 -130.83896,0 -80.49193,19.494374 -151.67376,56.8584 -220.92477,113.67974 l -66.49193,-51.47761 -17.15921,223.06968 210.20028,-34.31841 -62.20212,-70.78173 c 70.14542,-56.286 150.64361,-70.35891 231.64928,-62.20213 78.03253,4.36566 127.55266,43.25164 186.60638,87.94094 z"
           style="opacity:0.99900004;fill:#0000ff;fill-opacity:1;fill-rule:evenodd;stroke:#000000;stroke-width:2;stroke-linecap:butt;stroke-linejoin:miter;stroke-miterlimit:4;stroke-dasharray:none;stroke-opacity:1"
           transform="translate(0,-0.26771242)" />
      </g>
      <g
         inkscape:label="Layer 3"
         id="layer3" />
    </g>
  </g>
</svg>
