<?xml version="1.0" encoding="UTF-8" standalone="no"?>
<!-- Created with Inkscape (http://www.inkscape.org/) -->

<svg
   xmlns:dc="http://purl.org/dc/elements/1.1/"
   xmlns:cc="http://creativecommons.org/ns#"
   xmlns:rdf="http://www.w3.org/1999/02/22-rdf-syntax-ns#"
   xmlns:svg="http://www.w3.org/2000/svg"
   xmlns="http://www.w3.org/2000/svg"
   xmlns:sodipodi="http://sodipodi.sourceforge.net/DTD/sodipodi-0.dtd"
   xmlns:inkscape="http://www.inkscape.org/namespaces/inkscape"
   width="256"
   height="256"
   viewBox="0 0 256 256"
   id="svg2"
   version="1.1"
   inkscape:version="0.91 r13725"
   sodipodi:docname="app-icon.svg"
   inkscape:export-filename="C:\Users\wendre01\Desktop\island-INFO-test64.png"
   inkscape:export-xdpi="90"
   inkscape:export-ydpi="90">
  <defs
     id="defs4" />
  <sodipodi:namedview
     id="base"
     pagecolor="#ffffff"
     bordercolor="#666666"
     borderopacity="1.0"
     inkscape:pageopacity="0.0"
     inkscape:pageshadow="2"
     inkscape:zoom="1.3521484"
     inkscape:cx="128.1664"
     inkscape:cy="65.151631"
     inkscape:document-units="px"
     inkscape:current-layer="layer5"
     showgrid="false"
     units="px"
     inkscape:window-width="1600"
     inkscape:window-height="1138"
     inkscape:window-x="-8"
     inkscape:window-y="-8"
     inkscape:window-maximized="1" />
  <metadata
     id="metadata7">
    <rdf:RDF>
      <cc:Work
         rdf:about="">
        <dc:format>image/svg+xml</dc:format>
        <dc:type
           rdf:resource="http://purl.org/dc/dcmitype/StillImage" />
        <dc:title></dc:title>
      </cc:Work>
    </rdf:RDF>
  </metadata>
  <g
     inkscape:groupmode="layer"
     id="layer6"
     inkscape:label="water base"
     transform="translate(0,-312.36218)" />
  <g
     inkscape:groupmode="layer"
     id="layer10"
     inkscape:label="sky red"
     transform="translate(0,-312.36218)" />
  <g
     inkscape:groupmode="layer"
     id="layer12"
     inkscape:label="island text"
     transform="translate(0,-312.36218)" />
  <g
     inkscape:groupmode="layer"
     id="layer11"
     inkscape:label="text"
     transform="translate(0,-312.36218)">
    <text
       xml:space="preserve"
       style="font-style:normal;font-weight:normal;font-size:40px;line-height:125%;font-family:sans-serif;letter-spacing:0px;word-spacing:0px;fill:#000000;fill-opacity:1;stroke:none;stroke-width:1px;stroke-linecap:butt;stroke-linejoin:miter;stroke-opacity:1"
       x="-305.06607"
       y="158.24025"
       id="text4672"
       sodipodi:linespacing="125%"><tspan
         sodipodi:role="line"
         id="tspan4674"
         x="-305.06607"
         y="158.24025" /></text>
  </g>
  <g
     inkscape:groupmode="layer"
     id="layer7"
     inkscape:label="wave 1"
     transform="translate(0,-312.36218)" />
  <g
     inkscape:groupmode="layer"
     id="layer8"
     inkscape:label="wave 2"
     transform="translate(0,-312.36218)" />
  <g
     inkscape:groupmode="layer"
     id="layer9"
     inkscape:label="wave 3"
     transform="translate(0,-312.36218)" />
  <g
     inkscape:label="sand"
     inkscape:groupmode="layer"
     id="layer1"
     transform="translate(0,-796.3621)" />
  <g
     inkscape:groupmode="layer"
     id="layer2"
     inkscape:label="sun"
     transform="translate(0,-312.36218)" />
  <g
     inkscape:groupmode="layer"
     id="layer4"
     inkscape:label="leaves shade"
     transform="translate(0,-312.36218)" />
  <g
     inkscape:groupmode="layer"
     id="layer3"
     inkscape:label="tree trunk"
     transform="translate(0,-312.36218)" />
  <g
     inkscape:groupmode="layer"
     id="layer5"
     inkscape:label="leaves green"
     transform="translate(0,-312.36218)">
    <circle
       style="opacity:1;fill:#ff2c00;fill-opacity:1;stroke:#0087af;stroke-width:3.05201721;stroke-linecap:round;stroke-linejoin:round;stroke-miterlimit:4;stroke-dasharray:none;stroke-opacity:1"
       id="path4193"
       cx="127.7683"
       cy="441.0618"
       r="123.53401"
       inkscape:export-filename="C:\Users\wendre01\Desktop\test-120-64.png"
       inkscape:export-xdpi="45.759998"
       inkscape:export-ydpi="45.759998" />
    <path
       style="fill:#c5b358;fill-opacity:1;fill-rule:evenodd;stroke:#c5b358;stroke-width:0.60498792px;stroke-linecap:butt;stroke-linejoin:miter;stroke-opacity:1"
       d="m 121.08077,478.18812 -17.57004,2.59726 -15.889347,4.12519 -18.486667,6.11125 -9.472531,3.81955 7.180737,1.98624 7.791967,0.91676 5.65293,1.98608 0.152926,4.73622 7.027973,2.44455 14.667222,2.29171 12.98646,1.37504 18.18112,1.52788 9.93087,0.1538 6.72242,-0.76371 13.13933,-2.13897 12.06983,-2.59733 -3.05569,-6.11128 19.09781,-1.83349 7.63915,-1.52766 5.50014,-2.90293 -9.77803,-4.88896 -9.62533,-2.59729 -9.47252,-2.13905 -17.11165,-5.50013 -9.93084,-1.22219 -9.16697,-0.4587 z"
       id="path4201"
       inkscape:connector-curvature="0"
       inkscape:export-filename="C:\Users\wendre01\Desktop\test-120-64.png"
       inkscape:export-xdpi="45.759998"
       inkscape:export-ydpi="45.759998" />
    <circle
       style="opacity:1;fill:#fffb2d;fill-opacity:1;stroke:#fffb2d;stroke-width:1.17560399;stroke-linecap:round;stroke-linejoin:round;stroke-miterlimit:4;stroke-dasharray:none;stroke-opacity:1"
       id="path4209"
       cx="124.28928"
       cy="404.69949"
       r="45.027523"
       inkscape:export-filename="C:\Users\wendre01\Desktop\test-120-64.png"
       inkscape:export-xdpi="45.759998"
       inkscape:export-ydpi="45.759998" />
    <path
       style="fill:#000000;fill-opacity:1;fill-rule:evenodd;stroke:#000000;stroke-width:0.60498792px;stroke-linecap:butt;stroke-linejoin:miter;stroke-opacity:1"
       d="m 102.28854,384.68521 0.61113,15.12543 5.50015,-11.45873 2.90289,-0.91662 7.02805,8.0975 2.1389,-1.98627 1.06948,4.43063 5.19462,2.75007 -5.19462,-16.34762 -12.0698,-4.2779 -3.97239,-3.20844 z"
       id="path4217"
       inkscape:connector-curvature="0"
       inkscape:export-filename="C:\Users\wendre01\Desktop\test-120-64.png"
       inkscape:export-xdpi="45.759998"
       inkscape:export-ydpi="45.759998" />
    <path
       style="fill:#000000;fill-opacity:1;fill-rule:evenodd;stroke:#000000;stroke-width:0.60498792px;stroke-linecap:butt;stroke-linejoin:miter;stroke-opacity:1"
       d="m 144.30372,403.47752 -5.9585,12.68083 5.50014,-2.13896 1.22225,-3.66684 2.29177,1.52794 7.63907,-5.50021 2.90294,0.9167 3.97234,9.31978 2.44445,-10.69488 -2.59724,-7.63901 -3.97235,2.29165 z"
       id="path4215"
       inkscape:connector-curvature="0"
       inkscape:export-filename="C:\Users\wendre01\Desktop\test-120-64.png"
       inkscape:export-xdpi="45.759998"
       inkscape:export-ydpi="45.759998" />
    <path
       style="fill:#cd0000;fill-opacity:1;fill-rule:evenodd;stroke:#cd0000;stroke-width:0.60498792px;stroke-linecap:butt;stroke-linejoin:miter;stroke-opacity:1"
       d="m 121.69187,481.2437 3.20847,0 7.79189,-1.68057 6.4169,0.76451 0.30523,-10.84766 1.83338,-12.06976 3.36125,-12.22253 5.34739,-17.72289 5.04179,-14.36148 4.27789,-9.77821 1.83343,-5.04173 -3.6668,2.44454 -2.59724,5.80577 -7.33359,14.81988 -6.41688,14.81992 -7.18076,15.58375 -2.13897,4.43071 -5.0418,-18.02836 -5.80573,-19.86171 -7.18084,-23.83404 -4.58341,-14.20874 -3.36125,-2.90284 2.59729,9.93072 3.66682,14.97275 3.20839,16.04215 3.36123,16.95887 1.68056,11.4586 1.06956,13.29216 0.76387,11.00028 z"
       id="path4203"
       inkscape:connector-curvature="0"
       inkscape:export-filename="C:\Users\wendre01\Desktop\test-120-64.png"
       inkscape:export-xdpi="45.759998"
       inkscape:export-ydpi="45.759998" />
    <path
       style="fill:#0cff00;fill-opacity:1;fill-rule:evenodd;stroke:#0cff00;stroke-width:0.60498792px;stroke-linecap:butt;stroke-linejoin:miter;stroke-opacity:1"
       d="m 88.690878,366.19852 -21.847956,38.65394 12.681035,-8.25025 2.750044,-5.65293 0.611135,3.20841 5.805734,-8.0975 -2.750113,10.08362 3.819561,13.59771 10.23646,-19.86179 -1.069483,-8.09747 1.986205,4.43075 4.73625,-9.31975 3.20841,3.36125 19.86171,6.41683 0,-5.65296 3.36124,5.8058 14.20878,1.52773 -29.79262,-24.90343 -9.47248,6.26401 -5.3474,-10.54203 -6.416867,6.5696 -1.68061,3.97243 z"
       id="path4211"
       inkscape:connector-curvature="0"
       inkscape:export-filename="C:\Users\wendre01\Desktop\test-120-64.png"
       inkscape:export-xdpi="45.759998"
       inkscape:export-ydpi="45.759998" />
    <path
       style="fill:#0cff00;fill-opacity:1;fill-rule:evenodd;stroke:#0cff00;stroke-width:0.60498792px;stroke-linecap:butt;stroke-linejoin:miter;stroke-opacity:1"
       d="m 150.87334,386.97689 -31.47317,18.79225 14.66712,-1.06942 3.81956,-4.27797 0,4.43071 19.40336,-4.27794 4.12515,-2.44437 2.90282,8.09736 3.20845,-3.66679 -1.22221,6.41693 8.86139,15.88931 4.43066,-10.54195 -2.59731,-8.55587 5.80569,7.33361 1.52787,-4.43077 1.52787,5.9585 12.37534,7.18081 -19.70887,-31.32032 -5.19463,2.59728 -0.76396,-3.20852 -6.56962,-5.95851 -5.65291,8.40305 z"
       id="path4213"
       inkscape:connector-curvature="0"
       inkscape:export-filename="C:\Users\wendre01\Desktop\test-120-64.png"
       inkscape:export-xdpi="45.759998"
       inkscape:export-ydpi="45.759998" />
  </g>
</svg>
