<?xml version="1.0" encoding="UTF-8" standalone="no"?>
<!-- Created with Inkscape (http://www.inkscape.org/) -->

<svg
   xmlns:dc="http://purl.org/dc/elements/1.1/"
   xmlns:cc="http://creativecommons.org/ns#"
   xmlns:rdf="http://www.w3.org/1999/02/22-rdf-syntax-ns#"
   xmlns:svg="http://www.w3.org/2000/svg"
   xmlns="http://www.w3.org/2000/svg"
   xmlns:sodipodi="http://sodipodi.sourceforge.net/DTD/sodipodi-0.dtd"
   xmlns:inkscape="http://www.inkscape.org/namespaces/inkscape"
   width="64mm"
   height="64mm"
   viewBox="0 0 226.77165 226.77165"
   id="svg2"
   version="1.1"
   inkscape:version="0.91 r13725"
   sodipodi:docname="dollar_sign.svg">
  <defs
     id="defs4">
    <clipPath
       clipPathUnits="userSpaceOnUse"
       id="clipPath3375">
      <ellipse
         style="fill:#ffff05;fill-opacity:0.39215686;stroke:none;stroke-width:0.1;stroke-miterlimit:4;stroke-dasharray:none;stroke-opacity:1"
         id="ellipse3377"
         cx="198.20311"
         cy="516.36334"
         rx="10.908566"
         ry="10.169003" />
    </clipPath>
  </defs>
  <sodipodi:namedview
     id="base"
     pagecolor="#ffffff"
     bordercolor="#666666"
     borderopacity="1.0"
     inkscape:pageopacity="0.0"
     inkscape:pageshadow="2"
     inkscape:zoom="1.2551673"
     inkscape:cx="126.76822"
     inkscape:cy="46.925336"
     inkscape:document-units="px"
     inkscape:current-layer="layer3"
     showgrid="false"
     inkscape:window-width="1600"
     inkscape:window-height="1138"
     inkscape:window-x="-8"
     inkscape:window-y="-8"
     inkscape:window-maximized="1" />
  <metadata
     id="metadata7">
    <rdf:RDF>
      <cc:Work
         rdf:about="">
        <dc:format>image/svg+xml</dc:format>
        <dc:type
           rdf:resource="http://purl.org/dc/dcmitype/StillImage" />
        <dc:title></dc:title>
      </cc:Work>
    </rdf:RDF>
  </metadata>
  <g
     inkscape:groupmode="layer"
     id="layer3"
     inkscape:label="Monopoly Font Template"
     transform="translate(0,-517.32283)">
    <path
       style="fill:#008000;fill-rule:evenodd;stroke:#000000;stroke-width:5.24461603px;stroke-linecap:butt;stroke-linejoin:miter;stroke-opacity:1"
       d="m 125.65163,525.79453 -25.11401,0.73865 0,28.80721 c -12.01273,2.61329 -22.733903,8.28967 -30.284558,17.72753 -3.480799,4.54761 -6.124347,9.92554 -7.386464,15.51159 -1.925219,11.06999 1.331703,23.02503 6.647812,31.76187 6.51738,9.94971 16.728805,15.57587 26.591301,19.94343 6.195729,2.73937 13.111699,3.68733 19.204839,6.64787 15.70603,4.67791 12.40901,19.10181 0,21.42075 -9.0316,0.9391 -17.625629,-2.55272 -25.113996,-5.90917 C 86.377163,660.7319 79.11683,656.5351 79.11683,656.5351 l -24.375349,24.37534 18.466188,13.29564 c 8.075372,5.34371 15.415936,7.63039 25.114002,7.38646 l 0,31.76187 32.500459,-1.47731 0,-31.02316 c 19.273,-10.27894 31.7478,-14.25167 35.45508,-35.45507 1.07253,-6.31111 1.18035,-12.91298 0,-19.20484 -2.71262,-11.22096 -9.85775,-22.68207 -18.46619,-28.80726 -7.10876,-4.92066 -16.21105,-6.01924 -24.37535,-8.86377 -14.93384,-1.58819 -23.681936,-17.66946 -10.34107,-22.89805 11.08718,-3.77886 18.75406,2.40062 26.59131,10.34107 l 22.52877,-22.52876 c -8.15716,-13.01183 -22.62011,-18.07667 -35.08575,-21.79007 z"
       id="path4246"
       inkscape:connector-curvature="0"
       sodipodi:nodetypes="cccccccccccccccccccccccccc" />
  </g>
  <g
     inkscape:groupmode="layer"
     id="layer2"
     inkscape:label="Letter base"
     transform="translate(0,-517.32283)" />
  <g
     inkscape:label="Counter"
     inkscape:groupmode="layer"
     id="layer1"
     transform="translate(0,-825.59055)" />
</svg>
